<?xml version="1.0" encoding="UTF-8" standalone="no"?>
<svg
   width="124.44pt"
   height="144.00pt"
   viewBox="0 0 124.44 144.00"
   version="1.1"
   id="svg6"
   sodipodi:docname="logo_pepdiff.svg"
   inkscape:version="1.4.3 (0d15f75, 2025-12-25)"
   xmlns:inkscape="http://www.inkscape.org/namespaces/inkscape"
   xmlns:sodipodi="http://sodipodi.sourceforge.net/DTD/sodipodi-0.dtd"
   xmlns="http://www.w3.org/2000/svg"
   xmlns:svg="http://www.w3.org/2000/svg">
  <sodipodi:namedview
     id="namedview6"
     pagecolor="#ffffff"
     bordercolor="#000000"
     borderopacity="0.25"
     inkscape:showpageshadow="2"
     inkscape:pageopacity="0.0"
     inkscape:pagecheckerboard="0"
     inkscape:deskcolor="#d1d1d1"
     inkscape:document-units="pt"
     inkscape:zoom="5.2552083"
     inkscape:cx="82.870168"
     inkscape:cy="96"
     inkscape:window-width="2318"
     inkscape:window-height="1266"
     inkscape:window-x="0"
     inkscape:window-y="25"
     inkscape:window-maximized="0"
     inkscape:current-layer="svg6" />
  <defs
     id="defs1">
    <style
       type="text/css"
       id="style1">
      .svglite line, .svglite polyline, .svglite polygon, .svglite path, .svglite rect, .svglite circle {
        fill: none;
        stroke: #000000;
        stroke-linecap: round;
        stroke-linejoin: round;
        stroke-miterlimit: 10.00;
      }
    </style>
  </defs>
  <!-- Hex background (cream fill) -->
  <polygon
     points="120.03,107.96 120.03,41.20 62.21,7.82 4.39,41.20 4.39,107.96 62.21,141.34"
     style="fill:#ffffcc;stroke:none"
     id="polygon1" />
  <!-- Orange pepper (upper, parallel) -->
  <g
     transform="matrix(0.8,0,0,0.8,11.710605,26.109019)"
     id="g3">
    <!-- Orange pepper body -->
    <polygon
       points="45.06,108.91 45.44,108.39 45.82,107.88 46.2,107.38 46.58,106.89 46.96,106.41 47.33,105.94 47.71,105.47 48.09,105.01 48.47,104.56 48.85,104.12 49.23,103.68 49.61,103.25 49.99,102.83 50.37,102.41 50.75,101.99 51.13,101.58 51.51,101.18 51.89,100.78 52.27,100.38 52.65,99.99 53.04,99.6 53.42,99.22 53.8,98.84 54.19,98.47 54.57,98.09 54.96,97.73 55.34,97.36 55.73,97 56.11,96.65 56.5,96.29 56.89,95.94 57.28,95.59 57.66,95.25 58.05,94.91 58.44,94.57 58.83,94.24 59.22,93.91 59.61,93.58 60,93.25 60.39,92.93 60.79,92.61 61.18,92.29 61.57,91.97 61.97,91.66 62.36,91.35 62.76,91.05 63.15,90.74 63.55,90.44 63.94,90.14 64.34,89.84 64.74,89.55 65.14,89.26 65.53,88.97 65.93,88.68 66.33,88.4 66.73,88.11 67.13,87.83 67.54,87.56 67.94,87.28 68.34,87.01 68.74,86.74 69.15,86.47 69.55,86.2 69.96,85.94 70.36,85.68 70.77,85.42 71.17,85.16 71.58,84.91 71.99,84.66 72.4,84.41 72.81,84.16 73.22,83.91 73.63,83.67 74.04,83.43 74.45,83.19 74.86,82.95 75.27,82.71 75.68,82.48 76.1,82.25 76.51,82.02 76.93,81.79 77.34,81.57 77.76,81.34 78.17,81.12 78.59,80.9 79.01,80.69 79.43,80.47 79.85,80.26 80.27,80.05 80.69,79.84 81.11,79.63 81.53,79.43 81.95,79.23 82.37,79.03 82.8,78.83 83.22,78.63 83.64,78.44 84.07,78.25 84.5,78.06 84.92,77.87 85.35,77.68 85.78,77.5 86.2,77.31 86.63,77.13 87.06,76.96 87.49,76.78 87.92,76.61 88.35,76.43 88.78,76.26 89.22,76.09 89.65,75.93 90.08,75.76 90.52,75.6 90.95,75.44 91.39,75.28 91.82,75.13 92.26,74.97 92.7,74.82 93.14,74.67 93.58,74.52 94.01,74.37 94.45,74.23 94.9,74.09 95.34,73.95 95.78,73.81 96.22,73.67 96.66,73.54 97.11,73.4 97.55,73.27 98,73.14 98.39,72.93 98.77,72.7 99.15,72.47 99.54,72.24 99.92,72.01 100.54,73.05 100.16,73.28 99.78,73.51 99.39,73.74 99.01,73.97 98.64,74.21 98.32,74.54 98,74.87 97.67,75.2 97.35,75.53 97.03,75.86 96.7,76.19 96.38,76.52 96.05,76.84 95.73,77.17 95.4,77.49 95.07,77.81 94.75,78.14 94.42,78.46 94.09,78.78 93.76,79.1 93.43,79.42 93.1,79.73 92.77,80.05 92.43,80.37 92.1,80.68 91.77,80.99 91.43,81.31 91.1,81.62 90.76,81.93 90.43,82.24 90.09,82.55 89.75,82.86 89.42,83.17 89.08,83.48 88.74,83.79 88.4,84.1 88.06,84.4 87.72,84.71 87.38,85.01 87.03,85.32 86.69,85.62 86.35,85.92 86.01,86.22 85.66,86.53 85.32,86.83 84.97,87.13 84.62,87.43 84.28,87.73 83.93,88.02 83.58,88.32 83.23,88.62 82.88,88.92 82.53,89.22 82.18,89.51 81.83,89.81 81.48,90.1 81.13,90.4 80.77,90.69 80.42,90.99 80.07,91.28 79.71,91.57 79.36,91.87 79,92.16 78.65,92.45 78.29,92.75 77.93,93.04 77.57,93.33 77.21,93.62 76.85,93.91 76.5,94.21 76.13,94.5 75.77,94.79 75.41,95.08 75.05,95.37 74.69,95.66 74.32,95.95 73.96,96.25 73.6,96.54 73.23,96.83 72.87,97.12 72.5,97.41 72.13,97.7 71.77,97.99 71.4,98.29 71.03,98.58 70.66,98.87 70.29,99.16 69.92,99.46 69.55,99.75 69.18,100.04 68.81,100.34 68.44,100.63 68.06,100.93 67.69,101.22 67.32,101.52 66.94,101.82 66.57,102.12 66.19,102.41 65.82,102.71 65.44,103.01 65.06,103.32 64.69,103.62 64.31,103.92 63.93,104.22 63.55,104.53 63.17,104.84 62.79,105.14 62.41,105.45 62.03,105.76 61.65,106.08 61.27,106.39 60.89,106.7 60.51,107.02 60.12,107.34 59.74,107.66 59.36,107.98 58.97,108.31 58.59,108.63 58.2,108.96 57.82,109.29 57.43,109.63 57.05,109.97 56.66,110.31 56.28,110.65 55.89,111 55.5,111.35 55.12,111.7 54.73,112.06 54.34,112.42 53.95,112.79 53.57,113.16 53.18,113.54 52.79,113.92 52.4,114.31 52.02,114.71 51.63,115.12 51.24,115.53 50.86,115.95 50.47,116.38 50.09,116.82 49.71,117.28 49.33,117.75 48.95,118.23 48.57,118.74 48.2,119.27 47.83,119.84 47.48,120.45 47.14,121.12 46.88,122.05 39.48,120.12 39.98,118.12 40.41,116.97 40.82,116.02 41.22,115.18 41.62,114.41 42.01,113.68 42.39,113 42.78,112.35 43.16,111.73 43.54,111.13 43.92,110.55 44.3,109.99 44.68,109.44 "
       style="fill:#fd8d3c;stroke:#e6550d;stroke-width:2.56;stroke-linecap:butt"
       transform="matrix(1.2038736,0,0,1.2173765,-20.338605,-23.518207)"
       id="polygon2" />
    <!-- Orange pepper stem -->
    <polygon
       points="107.31,70.81 104.92,69.73 100.23,72.53 104.92,69.73 105.11,67.12 "
       style="fill:#238b45;stroke:#006d2c;stroke-width:1.07;stroke-linecap:butt"
       transform="matrix(2.4484213,0,0,2.7376577,-149.4211,-131.18506)"
       id="polygon3" />
    <!-- Orange pepper highlight -->
    <polyline
       points="44.89,113.01 45.28,112.44 45.66,111.90 46.04,111.37 46.42,110.86 46.80,110.36 47.18,109.87 47.56,109.39 47.94,108.92 48.32,108.46 48.70,108.00 49.09,107.56 49.47,107.12 49.85,106.69 50.23,106.26 50.61,105.84 50.99,105.43 51.37,105.02 51.75,104.61 52.13,104.21 52.52,103.82 52.90,103.43 53.28,103.04 53.66,102.66 54.04,102.28 54.43,101.91 54.81,101.54 55.19,101.17 55.58,100.81 55.96,100.45 56.34,100.09 56.73,99.74 57.11,99.39 57.49,99.04 57.88,98.69 58.26,98.35 58.65,98.01 59.03,97.68 59.42,97.34 59.81,97.01 60.19,96.68 60.58,96.36 60.96,96.03 61.35,95.71 61.74,95.39 62.13,95.08 62.51,94.76 62.90,94.45 63.29,94.14 63.68,93.83 64.07,93.53 64.45,93.22 64.84,92.92 65.23,92.62 65.62,92.32 66.01,92.03 66.40,91.73 66.79,91.44 67.18,91.15 67.58,90.86 67.97,90.58 68.36,90.29 68.75,90.01 69.14,89.73 69.53,89.45 69.93,89.17 70.32,88.90 70.71,88.62 71.11,88.35 71.50,88.08 71.90,87.81 72.29,87.54 72.68,87.28 73.08,87.01 73.47,86.75 73.87,86.49 74.27,86.23 74.66,85.97 75.06,85.72 75.46,85.46 75.85,85.21 76.25,84.96 76.65,84.71 77.05,84.46 77.44,84.21 77.84,83.97 78.24,83.72 78.64,83.48 79.04,83.24 79.44,83.00 79.84,82.76"
       style="fill:none;stroke:#fdae6b;stroke-width:3.84;stroke-opacity:0.5"
       transform="matrix(1.1557782,0,0,1.1283743,-14.710151,-16.490597)"
       id="polyline3" />
  </g>
  <!-- Red pepper (lower, parallel) -->
  <g
     transform="matrix(0.8,0,0,0.8,-7.0009911,14.717542)"
     id="g5">
    <!-- Red pepper body -->
    <polygon
       points="45.06,108.91 45.44,108.39 45.82,107.88 46.2,107.38 46.58,106.89 46.96,106.41 47.33,105.94 47.71,105.47 48.09,105.01 48.47,104.56 48.85,104.12 49.23,103.68 49.61,103.25 49.99,102.83 50.37,102.41 50.75,101.99 51.13,101.58 51.51,101.18 51.89,100.78 52.27,100.38 52.65,99.99 53.04,99.6 53.42,99.22 53.8,98.84 54.19,98.47 54.57,98.09 54.96,97.73 55.34,97.36 55.73,97 56.11,96.65 56.5,96.29 56.89,95.94 57.28,95.59 57.66,95.25 58.05,94.91 58.44,94.57 58.83,94.24 59.22,93.91 59.61,93.58 60,93.25 60.39,92.93 60.79,92.61 61.18,92.29 61.57,91.97 61.97,91.66 62.36,91.35 62.76,91.05 63.15,90.74 63.55,90.44 63.94,90.14 64.34,89.84 64.74,89.55 65.14,89.26 65.53,88.97 65.93,88.68 66.33,88.4 66.73,88.11 67.13,87.83 67.54,87.56 67.94,87.28 68.34,87.01 68.74,86.74 69.15,86.47 69.55,86.2 69.96,85.94 70.36,85.68 70.77,85.42 71.17,85.16 71.58,84.91 71.99,84.66 72.4,84.41 72.81,84.16 73.22,83.91 73.63,83.67 74.04,83.43 74.45,83.19 74.86,82.95 75.27,82.71 75.68,82.48 76.1,82.25 76.51,82.02 76.93,81.79 77.34,81.57 77.76,81.34 78.17,81.12 78.59,80.9 79.01,80.69 79.43,80.47 79.85,80.26 80.27,80.05 80.69,79.84 81.11,79.63 81.53,79.43 81.95,79.23 82.37,79.03 82.8,78.83 83.22,78.63 83.64,78.44 84.07,78.25 84.5,78.06 84.92,77.87 85.35,77.68 85.78,77.5 86.2,77.31 86.63,77.13 87.06,76.96 87.49,76.78 87.92,76.61 88.35,76.43 88.78,76.26 89.22,76.09 89.65,75.93 90.08,75.76 90.52,75.6 90.95,75.44 91.39,75.28 91.82,75.13 92.26,74.97 92.7,74.82 93.14,74.67 93.58,74.52 94.01,74.37 94.45,74.23 94.9,74.09 95.34,73.95 95.78,73.81 96.22,73.67 96.66,73.54 97.11,73.4 97.55,73.27 98,73.14 98.39,72.93 98.77,72.7 99.15,72.47 99.54,72.24 99.92,72.01 100.54,73.05 100.16,73.28 99.78,73.51 99.39,73.74 99.01,73.97 98.64,74.21 98.32,74.54 98,74.87 97.67,75.2 97.35,75.53 97.03,75.86 96.7,76.19 96.38,76.52 96.05,76.84 95.73,77.17 95.4,77.49 95.07,77.81 94.75,78.14 94.42,78.46 94.09,78.78 93.76,79.1 93.43,79.42 93.1,79.73 92.77,80.05 92.43,80.37 92.1,80.68 91.77,80.99 91.43,81.31 91.1,81.62 90.76,81.93 90.43,82.24 90.09,82.55 89.75,82.86 89.42,83.17 89.08,83.48 88.74,83.79 88.4,84.1 88.06,84.4 87.72,84.71 87.38,85.01 87.03,85.32 86.69,85.62 86.35,85.92 86.01,86.22 85.66,86.53 85.32,86.83 84.97,87.13 84.62,87.43 84.28,87.73 83.93,88.02 83.58,88.32 83.23,88.62 82.88,88.92 82.53,89.22 82.18,89.51 81.83,89.81 81.48,90.1 81.13,90.4 80.77,90.69 80.42,90.99 80.07,91.28 79.71,91.57 79.36,91.87 79,92.16 78.65,92.45 78.29,92.75 77.93,93.04 77.57,93.33 77.21,93.62 76.85,93.91 76.5,94.21 76.13,94.5 75.77,94.79 75.41,95.08 75.05,95.37 74.69,95.66 74.32,95.95 73.96,96.25 73.6,96.54 73.23,96.83 72.87,97.12 72.5,97.41 72.13,97.7 71.77,97.99 71.4,98.29 71.03,98.58 70.66,98.87 70.29,99.16 69.92,99.46 69.55,99.75 69.18,100.04 68.81,100.34 68.44,100.63 68.06,100.93 67.69,101.22 67.32,101.52 66.94,101.82 66.57,102.12 66.19,102.41 65.82,102.71 65.44,103.01 65.06,103.32 64.69,103.62 64.31,103.92 63.93,104.22 63.55,104.53 63.17,104.84 62.79,105.14 62.41,105.45 62.03,105.76 61.65,106.08 61.27,106.39 60.89,106.7 60.51,107.02 60.12,107.34 59.74,107.66 59.36,107.98 58.97,108.31 58.59,108.63 58.2,108.96 57.82,109.29 57.43,109.63 57.05,109.97 56.66,110.31 56.28,110.65 55.89,111 55.5,111.35 55.12,111.7 54.73,112.06 54.34,112.42 53.95,112.79 53.57,113.16 53.18,113.54 52.79,113.92 52.4,114.31 52.02,114.71 51.63,115.12 51.24,115.53 50.86,115.95 50.47,116.38 50.09,116.82 49.71,117.28 49.33,117.75 48.95,118.23 48.57,118.74 48.2,119.27 47.83,119.84 47.48,120.45 47.14,121.12 46.88,122.05 39.48,120.12 39.98,118.12 40.41,116.97 40.82,116.02 41.22,115.18 41.62,114.41 42.01,113.68 42.39,113 42.78,112.35 43.16,111.73 43.54,111.13 43.92,110.55 44.3,109.99 44.68,109.44 "
       style="fill:#bd0026;stroke:#800026;stroke-width:2.56;stroke-linecap:butt"
       transform="matrix(1.2038736,0,0,1.2173765,-20.338605,-23.518207)"
       id="polygon4" />
    <!-- Red pepper stem -->
    <polygon
       points="107.31,70.81 104.92,69.73 100.23,72.53 104.92,69.73 105.11,67.12 "
       style="fill:#238b45;stroke:#006d2c;stroke-width:1.07;stroke-linecap:butt"
       transform="matrix(2.4484213,0,0,2.7376577,-149.4211,-131.18506)"
       id="polygon5" />
    <!-- Red pepper highlight -->
    <polyline
       points="44.89,113.01 45.28,112.44 45.66,111.90 46.04,111.37 46.42,110.86 46.80,110.36 47.18,109.87 47.56,109.39 47.94,108.92 48.32,108.46 48.70,108.00 49.09,107.56 49.47,107.12 49.85,106.69 50.23,106.26 50.61,105.84 50.99,105.43 51.37,105.02 51.75,104.61 52.13,104.21 52.52,103.82 52.90,103.43 53.28,103.04 53.66,102.66 54.04,102.28 54.43,101.91 54.81,101.54 55.19,101.17 55.58,100.81 55.96,100.45 56.34,100.09 56.73,99.74 57.11,99.39 57.49,99.04 57.88,98.69 58.26,98.35 58.65,98.01 59.03,97.68 59.42,97.34 59.81,97.01 60.19,96.68 60.58,96.36 60.96,96.03 61.35,95.71 61.74,95.39 62.13,95.08 62.51,94.76 62.90,94.45 63.29,94.14 63.68,93.83 64.07,93.53 64.45,93.22 64.84,92.92 65.23,92.62 65.62,92.32 66.01,92.03 66.40,91.73 66.79,91.44 67.18,91.15 67.58,90.86 67.97,90.58 68.36,90.29 68.75,90.01 69.14,89.73 69.53,89.45 69.93,89.17 70.32,88.90 70.71,88.62 71.11,88.35 71.50,88.08 71.90,87.81 72.29,87.54 72.68,87.28 73.08,87.01 73.47,86.75 73.87,86.49 74.27,86.23 74.66,85.97 75.06,85.72 75.46,85.46 75.85,85.21 76.25,84.96 76.65,84.71 77.05,84.46 77.44,84.21 77.84,83.97 78.24,83.72 78.64,83.48 79.04,83.24 79.44,83.00 79.84,82.76"
       style="fill:none;stroke:#fc4e2a;stroke-width:3.84;stroke-opacity:0.5"
       transform="matrix(1.1557782,0,0,1.1283743,-14.710151,-16.490597)"
       id="polyline5" />
  </g>
  <!-- Hex border (red stroke) -->
  <polygon
     points="120.03,107.96 120.03,41.20 62.21,7.82 4.39,41.20 4.39,107.96 62.21,141.34"
     style="fill:none;stroke:#bd0026;stroke-width:4.27;stroke-linecap:butt"
     id="polygon6" />
  <!-- Text "pepdiff" -->
  <text
     x="60.187908"
     y="47.155396"
     style="font-weight:600;font-size:20.0948px;font-family:'Fira Sans', 'Helvetica Neue', Helvetica, Arial, sans-serif;text-anchor:middle;fill:#800026;stroke-width:1.11638"
     id="text6"
     transform="scale(0.98543216,1.0147832)">pepdiff</text>
</svg>
